<svg xmlns="http://www.w3.org/2000/svg" viewBox="0 0 640 360"><defs><linearGradient id="g" x1="0" y1="0" x2="1" y2="1"><stop stop-color="#940f51"/><stop offset="1" stop-color="#00a6c8"/></linearGradient><filter id="s"><feDropShadow dx="0" dy="12" stdDeviation="13" flood-opacity=".28"/></filter></defs><rect width="640" height="360" rx="28" fill="url(#g)"/><circle cx="560" cy="30" r="130" fill="#fff" opacity=".1"/><circle cx="76" cy="340" r="150" fill="#fff" opacity=".08"/><g transform="translate(397 44) scale(8.2)" color="#fff" opacity=".16"><g fill="none" stroke="currentColor" stroke-width="1.8" stroke-linecap="round" stroke-linejoin="round"><path d="M9 18V6l10-2v12M9 10l10-2"/><circle cx="6" cy="18" r="3"/><circle cx="16" cy="16" r="3"/></g></g><g filter="url(#s)"><rect x="72" y="66" width="214" height="224" rx="34" fill="#fff" opacity=".96"/><g transform="translate(99 91) scale(6.7)" color="#d04b8d"><g fill="none" stroke="currentColor" stroke-width="1.8" stroke-linecap="round" stroke-linejoin="round"><path d="M9 18V6l10-2v12M9 10l10-2"/><circle cx="6" cy="18" r="3"/><circle cx="16" cy="16" r="3"/></g></g></g><path d="M335 220h220" stroke="#fff" stroke-width="13" stroke-linecap="round" opacity=".9"/><path d="M335 252h166" stroke="#fff" stroke-width="9" stroke-linecap="round" opacity=".5"/><path d="M335 282h126" stroke="#fff" stroke-width="9" stroke-linecap="round" opacity=".32"/></svg>