<svg xmlns="http://www.w3.org/2000/svg" viewBox="0 0 960 560"><defs><linearGradient id="g" x1="0" y1="0" x2="1" y2="1"><stop stop-color="#00634b"/><stop offset=".58" stop-color="#1f9f87"/><stop offset="1" stop-color="#65e5cd"/></linearGradient><filter id="s"><feDropShadow dx="0" dy="18" stdDeviation="18" flood-opacity=".25"/></filter></defs><rect width="960" height="560" rx="42" fill="url(#g)"/><circle cx="790" cy="90" r="210" fill="#fff" opacity=".08"/><circle cx="125" cy="500" r="190" fill="#fff" opacity=".07"/><path d="M0 410 Q230 310 450 420T960 355V560H0Z" fill="#0b1438" opacity=".2"/><g transform="translate(580 90) scale(11)" color="#fff" opacity=".18"><g fill="none" stroke="currentColor" stroke-width="1.8" stroke-linecap="round" stroke-linejoin="round"><circle cx="12" cy="12" r="9"/><circle cx="12" cy="12" r="5"/><circle cx="12" cy="12" r="1.5"/></g></g><g filter="url(#s)"><circle cx="310" cy="220" r="82" fill="#ffcf9d"/><path d="M227 207c10-94 154-112 174 0-47-24-105-32-174 0Z" fill="#25314f"/><path d="M206 510c7-143 57-218 104-218s98 75 104 218" fill="#fff" opacity=".96"/><circle cx="522" cy="265" r="63" fill="#b96f43"/><path d="M458 256c9-73 113-91 129 0-38-18-82-22-129 0Z" fill="#19213a"/><path d="M442 510c8-112 44-180 80-180 39 0 78 68 84 180" fill="#25d2bf"/></g><g transform="translate(112 106) scale(7.5)" color="#fff"><g fill="none" stroke="currentColor" stroke-width="1.8" stroke-linecap="round" stroke-linejoin="round"><circle cx="12" cy="12" r="9"/><circle cx="12" cy="12" r="5"/><circle cx="12" cy="12" r="1.5"/></g></g><path d="M120 388h325" stroke="#fff" stroke-width="12" stroke-linecap="round" opacity=".75"/><path d="M120 420h240" stroke="#fff" stroke-width="8" stroke-linecap="round" opacity=".4"/></svg>