<svg xmlns="http://www.w3.org/2000/svg" viewBox="0 0 240 180"><ellipse cx="120" cy="155" rx="86" ry="8" fill="#163e4210"/><g stroke="#315658" stroke-width="3.5" stroke-linecap="round" stroke-linejoin="round"><circle cx="120" cy="43" r="22" fill="#e6b281"/><path d="M99 37Q99 13 124 20Q145 19 141 39L129 30L117 33L108 29Z" fill="#3c3028"/><circle cx="113" cy="43" r="1" fill="#163e42"/><circle cx="127" cy="43" r="1" fill="#163e42"/><path d="M115 52Q120 56 126 51" fill="none"/><rect x="99" y="69" width="42" height="48" rx="9" fill="#4d8f91"/><path d="M108 117L102 151" fill="none"/><path d="M132 117L140 151" fill="none"/><path d="M101 76L80 105" fill="none"/><path d="M139 76L159 105" fill="none"/><rect x="65" y="104" width="112" height="23" rx="5" fill="#fff8df"/><path d="M118 104L118 128" fill="none"/></g></svg>